<svg viewBox="0 0 32 32" xmlns="http://www.w3.org/2000/svg">
  <g clip-path="url(#clip0_7560_41853)">
    <path
      d="M26.6402 15.3403C26.6402 13.2505 26.1146 11.7842 25.356 10.7553C25.1102 10.4219 25.1818 9.95229 25.5152 9.70649C25.8486 9.46072 26.3182 9.53134 26.564 9.8647C27.5454 11.1958 28.1402 12.99 28.1402 15.3403C28.1401 17.7419 27.4273 19.5394 26.3091 20.8579C25.2014 22.1639 23.743 22.9443 22.3355 23.4106C20.9277 23.8769 19.5329 24.0419 18.4995 24.0922C17.9806 24.1175 17.547 24.1138 17.2408 24.104C17.0875 24.099 16.9654 24.0928 16.8804 24.0874C16.8383 24.0846 16.8052 24.0824 16.7818 24.0805C16.77 24.0796 16.7602 24.0782 16.7535 24.0776C16.7503 24.0773 16.7477 24.0778 16.7456 24.0776C16.7446 24.0775 16.7434 24.0767 16.7427 24.0766H16.7408C16.3285 24.0383 16.025 23.6734 16.063 23.2612C16.1012 22.8487 16.467 22.5452 16.8794 22.5834C16.88 22.5835 16.8813 22.5834 16.8824 22.5834C16.8858 22.5837 16.892 22.5838 16.8999 22.5844C16.9165 22.5857 16.9424 22.588 16.9771 22.5903C17.0471 22.5948 17.1526 22.6006 17.2886 22.6049C17.5609 22.6137 17.9537 22.6172 18.4263 22.5942C19.3765 22.5479 20.6268 22.3965 21.8638 21.9868C23.1013 21.5768 24.2885 20.9201 25.1646 19.8872C26.0301 18.8666 26.6401 17.4234 26.6402 15.3403Z"
    />
    <path
      d="M17.6781 6.52704C18.271 6.49425 19.0954 6.48444 20.0218 6.57392C20.4341 6.61374 20.7365 6.97998 20.6966 7.39228C20.6568 7.80437 20.2904 8.10568 19.8783 8.0661C19.0447 7.98559 18.2982 7.99538 17.7611 8.02509C17.4934 8.0399 17.2793 8.06011 17.1341 8.07587C17.0616 8.08375 17.006 8.09069 16.9701 8.0954L16.9232 8.10126L16.846 8.10907C16.4667 8.12783 16.1273 7.85687 16.0687 7.47333C16.0064 7.06399 16.2874 6.68138 16.6966 6.61884H16.6986L16.6996 6.61786C16.7008 6.61768 16.7027 6.61813 16.7044 6.61786C16.7083 6.6173 16.7137 6.61584 16.7201 6.61493C16.7331 6.61308 16.7516 6.61114 16.7748 6.6081C16.8212 6.60199 16.8878 6.59381 16.972 6.58466C17.1405 6.56637 17.3812 6.54347 17.6781 6.52704Z"
    />
    <path
      d="M20.2797 18.8098C20.5726 18.5169 21.0474 18.5169 21.3403 18.8098C21.6332 19.1027 21.6332 19.5774 21.3403 19.8703L17.8705 23.34L21.3403 26.8098C21.6332 27.1027 21.6332 27.5774 21.3403 27.8703C21.0474 28.1632 20.5726 28.1632 20.2797 27.8703L16.2797 23.8703C15.9868 23.5774 15.9868 23.1027 16.2797 22.8098L20.2797 18.8098Z"
    />
    <path
      d="M7.58809 20.0871C7.98183 19.959 8.40511 20.1738 8.5334 20.5675C8.66171 20.9614 8.44578 21.3845 8.05196 21.5129C7.41538 21.7204 6.92579 22.2598 6.78243 22.9191C6.69445 23.3238 6.2955 23.5812 5.89083 23.4933C5.48607 23.4053 5.22959 23.0055 5.31758 22.6008C5.57422 21.4202 6.44485 20.4596 7.58809 20.0871Z"
    />
    <path
      d="M5.97998 7.36C5.97998 8.83 7.16998 10.03 8.64998 10.03C10.13 10.03 11.32 8.84 11.32 7.36C11.32 5.88 10.13 4.69 8.64998 4.69C7.16998 4.69 5.97998 5.88 5.97998 7.36Z"
    />
    <path
      d="M10.5698 7.35992C10.5698 6.29417 9.71566 5.44 8.6499 5.44C7.58418 5.44004 6.73002 6.2942 6.72998 7.35992C6.72998 8.41752 7.58598 9.2798 8.6499 9.27985C9.71569 9.27985 10.5698 8.42571 10.5698 7.35992ZM12.0698 7.35992C12.0698 9.25414 10.5441 10.7798 8.6499 10.7798C6.7539 10.7798 5.22998 9.24228 5.22998 7.35992C5.23002 5.46577 6.75575 3.94004 8.6499 3.94C10.5441 3.94 12.0698 5.46575 12.0698 7.35992Z"
    />
    <path
      d="M27.4697 3.46973C27.7626 3.17684 28.2373 3.17684 28.5302 3.46973C28.8231 3.76262 28.8231 4.23738 28.5302 4.53028L4.53022 28.5303C4.23732 28.8232 3.76256 28.8232 3.46967 28.5303C3.17678 28.2374 3.17678 27.7626 3.46967 27.4697L27.4697 3.46973Z"
    />
    <path
      d="M10.5271 23.7308C10.6151 23.326 11.0149 23.0696 11.4197 23.1575C11.8241 23.2457 12.0808 23.6446 11.9929 24.0492C11.7363 25.2296 10.8656 26.1903 9.72242 26.5628C9.32862 26.6911 8.90547 26.4761 8.77711 26.0824C8.64879 25.6886 8.86381 25.2654 9.25758 25.137C9.89429 24.9296 10.3837 24.3902 10.5271 23.7308Z"
    />
  </g>
  <defs>
    <clipPath id="clip0_7560_41853">
      <rect width="32" height="32" />
    </clipPath>
  </defs>
</svg>
