<svg viewBox="0 0 32 32" xmlns="http://www.w3.org/2000/svg">
  <g clip-path="url(#clip0_7222_75487)">
    <path
      d="M27.25 14.6667V9.33374C27.25 8.82541 27.0479 8.33772 26.6885 7.97827C26.329 7.61883 25.8413 7.41675 25.333 7.41675H6.66699C6.15866 7.41675 5.67097 7.61883 5.31152 7.97827C4.95208 8.33772 4.75 8.82541 4.75 9.33374V22.6667C4.75 23.1751 4.95208 23.6628 5.31152 24.0222C5.67095 24.3816 6.15874 24.5837 6.66699 24.5837H14.667C15.0811 24.5839 15.417 24.9196 15.417 25.3337C15.4168 25.7477 15.0809 26.0836 14.667 26.0837H6.66699C5.76091 26.0837 4.89171 25.7234 4.25098 25.0828C3.61023 24.442 3.25 23.5729 3.25 22.6667V9.33374C3.25 8.42758 3.61023 7.55847 4.25098 6.91772C4.89173 6.27698 5.76084 5.91675 6.66699 5.91675H25.333C26.2392 5.91675 27.1083 6.27698 27.749 6.91772C28.3898 7.55847 28.75 8.42758 28.75 9.33374V14.6667C28.75 15.081 28.4142 15.4167 28 15.4167C27.5858 15.4167 27.25 15.081 27.25 14.6667Z"
    />
    <path
      d="M27.2497 19.9998C27.2496 19.8452 27.1881 19.697 27.0788 19.5876C26.9694 19.4784 26.8213 19.4167 26.6667 19.4167H19.9997C19.8451 19.4168 19.6969 19.4783 19.5876 19.5876C19.4782 19.697 19.4168 19.8452 19.4167 19.9998V23.9998C19.4167 24.1545 19.4782 24.3034 19.5876 24.4128C19.6969 24.5221 19.8452 24.5837 19.9997 24.5837H26.6667C26.8212 24.5837 26.9694 24.522 27.0788 24.4128C27.1882 24.3034 27.2497 24.1545 27.2497 23.9998V19.9998ZM28.7497 23.9998C28.7497 24.5523 28.53 25.0827 28.1393 25.4734C27.7487 25.8639 27.219 26.0837 26.6667 26.0837H19.9997C19.4473 26.0837 18.9176 25.8639 18.527 25.4734C18.1363 25.0827 17.9167 24.5523 17.9167 23.9998V19.9998C17.9168 19.4473 18.1364 18.9177 18.527 18.5271C18.9176 18.1365 19.4473 17.9168 19.9997 17.9167H26.6667C27.2191 17.9167 27.7486 18.1365 28.1393 18.5271C28.5299 18.9177 28.7496 19.4473 28.7497 19.9998V23.9998Z"
    />
  </g>
  <defs>
    <clipPath id="clip0_7222_75487">
      <rect width="32" height="32" />
    </clipPath>
  </defs>
</svg>
